<svg xmlns="http://www.w3.org/2000/svg" width="1920" height="1080" viewBox="0 0 1920 1080" font-family="monospace">
<rect width="1920" height="1080" fill="#ffffff"/>
<text x="100" y="32" font-size="19" fill="#111"> p99_to_p100.svg, latency histogram, (999995 samples, 10ns buckets)</text>
<line x1="100.0" y1="948.2" x2="1885.0" y2="948.2" stroke="#f0f0f0"/>
<text x="90.0" y="952.2" font-size="13" fill="#444" text-anchor="end">1</text>
<line x1="100.0" y1="901.5" x2="1885.0" y2="901.5" stroke="#f0f0f0"/>
<text x="90.0" y="905.5" font-size="13" fill="#444" text-anchor="end">2</text>
<line x1="100.0" y1="854.8" x2="1885.0" y2="854.8" stroke="#f0f0f0"/>
<text x="90.0" y="858.8" font-size="13" fill="#444" text-anchor="end">4</text>
<line x1="100.0" y1="808.0" x2="1885.0" y2="808.0" stroke="#f0f0f0"/>
<text x="90.0" y="812.0" font-size="13" fill="#444" text-anchor="end">8</text>
<line x1="100.0" y1="761.2" x2="1885.0" y2="761.2" stroke="#f0f0f0"/>
<text x="90.0" y="765.2" font-size="13" fill="#444" text-anchor="end">16</text>
<line x1="100.0" y1="714.5" x2="1885.0" y2="714.5" stroke="#f0f0f0"/>
<text x="90.0" y="718.5" font-size="13" fill="#444" text-anchor="end">32</text>
<line x1="100.0" y1="667.8" x2="1885.0" y2="667.8" stroke="#f0f0f0"/>
<text x="90.0" y="671.8" font-size="13" fill="#444" text-anchor="end">64</text>
<line x1="100.0" y1="621.0" x2="1885.0" y2="621.0" stroke="#f0f0f0"/>
<text x="90.0" y="625.0" font-size="13" fill="#444" text-anchor="end">128</text>
<line x1="100.0" y1="574.2" x2="1885.0" y2="574.2" stroke="#f0f0f0"/>
<text x="90.0" y="578.2" font-size="13" fill="#444" text-anchor="end">256</text>
<line x1="100.0" y1="527.5" x2="1885.0" y2="527.5" stroke="#f0f0f0"/>
<text x="90.0" y="531.5" font-size="13" fill="#444" text-anchor="end">512</text>
<line x1="100.0" y1="480.8" x2="1885.0" y2="480.8" stroke="#f0f0f0"/>
<text x="90.0" y="484.8" font-size="13" fill="#444" text-anchor="end">1024</text>
<line x1="100.0" y1="434.0" x2="1885.0" y2="434.0" stroke="#f0f0f0"/>
<text x="90.0" y="438.0" font-size="13" fill="#444" text-anchor="end">2048</text>
<line x1="100.0" y1="387.2" x2="1885.0" y2="387.2" stroke="#f0f0f0"/>
<text x="90.0" y="391.2" font-size="13" fill="#444" text-anchor="end">4096</text>
<line x1="100.0" y1="340.5" x2="1885.0" y2="340.5" stroke="#f0f0f0"/>
<text x="90.0" y="344.5" font-size="13" fill="#444" text-anchor="end">8192</text>
<line x1="100.0" y1="293.8" x2="1885.0" y2="293.8" stroke="#f0f0f0"/>
<text x="90.0" y="297.8" font-size="13" fill="#444" text-anchor="end">16384</text>
<line x1="100.0" y1="247.0" x2="1885.0" y2="247.0" stroke="#f0f0f0"/>
<text x="90.0" y="251.0" font-size="13" fill="#444" text-anchor="end">32768</text>
<line x1="100.0" y1="200.2" x2="1885.0" y2="200.2" stroke="#f0f0f0"/>
<text x="90.0" y="204.2" font-size="13" fill="#444" text-anchor="end">65536</text>
<line x1="100.0" y1="153.5" x2="1885.0" y2="153.5" stroke="#f0f0f0"/>
<text x="90.0" y="157.5" font-size="13" fill="#444" text-anchor="end">131072</text>
<line x1="100.0" y1="106.8" x2="1885.0" y2="106.8" stroke="#f0f0f0"/>
<text x="90.0" y="110.8" font-size="13" fill="#444" text-anchor="end">262144</text>
<line x1="100.0" y1="60.0" x2="1885.0" y2="60.0" stroke="#f0f0f0"/>
<text x="90.0" y="64.0" font-size="13" fill="#444" text-anchor="end">524288</text>
<line x1="100.0" y1="60.0" x2="100.0" y2="995.0" stroke="#d0d0d0"/>
<text x="100.0" y="1017.0" font-size="13" fill="#444" text-anchor="middle">60</text>
<line x1="180.7" y1="60.0" x2="180.7" y2="995.0" stroke="#efefef"/>
<line x1="225.6" y1="60.0" x2="225.6" y2="995.0" stroke="#d0d0d0"/>
<text x="225.6" y="1017.0" font-size="13" fill="#444" text-anchor="middle">200</text>
<line x1="270.4" y1="60.0" x2="270.4" y2="995.0" stroke="#efefef"/>
<line x1="315.3" y1="60.0" x2="315.3" y2="995.0" stroke="#d0d0d0"/>
<text x="315.3" y="1017.0" font-size="13" fill="#444" text-anchor="middle">300</text>
<line x1="360.1" y1="60.0" x2="360.1" y2="995.0" stroke="#efefef"/>
<line x1="405.0" y1="60.0" x2="405.0" y2="995.0" stroke="#d0d0d0"/>
<text x="405.0" y="1017.0" font-size="13" fill="#444" text-anchor="middle">400</text>
<line x1="449.8" y1="60.0" x2="449.8" y2="995.0" stroke="#efefef"/>
<line x1="494.7" y1="60.0" x2="494.7" y2="995.0" stroke="#d0d0d0"/>
<text x="494.7" y="1017.0" font-size="13" fill="#444" text-anchor="middle">500</text>
<line x1="539.5" y1="60.0" x2="539.5" y2="995.0" stroke="#efefef"/>
<line x1="584.4" y1="60.0" x2="584.4" y2="995.0" stroke="#d0d0d0"/>
<text x="584.4" y="1017.0" font-size="13" fill="#444" text-anchor="middle">600</text>
<line x1="629.2" y1="60.0" x2="629.2" y2="995.0" stroke="#efefef"/>
<line x1="674.1" y1="60.0" x2="674.1" y2="995.0" stroke="#d0d0d0"/>
<text x="674.1" y="1017.0" font-size="13" fill="#444" text-anchor="middle">700</text>
<line x1="718.9" y1="60.0" x2="718.9" y2="995.0" stroke="#efefef"/>
<line x1="763.8" y1="60.0" x2="763.8" y2="995.0" stroke="#d0d0d0"/>
<text x="763.8" y="1017.0" font-size="13" fill="#444" text-anchor="middle">800</text>
<line x1="808.6" y1="60.0" x2="808.6" y2="995.0" stroke="#efefef"/>
<line x1="853.5" y1="60.0" x2="853.5" y2="995.0" stroke="#d0d0d0"/>
<text x="853.5" y="1017.0" font-size="13" fill="#444" text-anchor="middle">900</text>
<line x1="898.3" y1="60.0" x2="898.3" y2="995.0" stroke="#efefef"/>
<line x1="943.2" y1="60.0" x2="943.2" y2="995.0" stroke="#d0d0d0"/>
<text x="943.2" y="1017.0" font-size="13" fill="#444" text-anchor="middle">1000</text>
<line x1="988.0" y1="60.0" x2="988.0" y2="995.0" stroke="#efefef"/>
<line x1="1032.9" y1="60.0" x2="1032.9" y2="995.0" stroke="#d0d0d0"/>
<text x="1032.9" y="1017.0" font-size="13" fill="#444" text-anchor="middle">1100</text>
<line x1="1077.7" y1="60.0" x2="1077.7" y2="995.0" stroke="#efefef"/>
<line x1="1122.6" y1="60.0" x2="1122.6" y2="995.0" stroke="#d0d0d0"/>
<text x="1122.6" y="1017.0" font-size="13" fill="#444" text-anchor="middle">1200</text>
<line x1="1167.4" y1="60.0" x2="1167.4" y2="995.0" stroke="#efefef"/>
<line x1="1212.3" y1="60.0" x2="1212.3" y2="995.0" stroke="#d0d0d0"/>
<text x="1212.3" y="1017.0" font-size="13" fill="#444" text-anchor="middle">1300</text>
<line x1="1257.1" y1="60.0" x2="1257.1" y2="995.0" stroke="#efefef"/>
<line x1="1302.0" y1="60.0" x2="1302.0" y2="995.0" stroke="#d0d0d0"/>
<text x="1302.0" y="1017.0" font-size="13" fill="#444" text-anchor="middle">1400</text>
<line x1="1346.8" y1="60.0" x2="1346.8" y2="995.0" stroke="#efefef"/>
<line x1="1391.7" y1="60.0" x2="1391.7" y2="995.0" stroke="#d0d0d0"/>
<text x="1391.7" y="1017.0" font-size="13" fill="#444" text-anchor="middle">1500</text>
<line x1="1436.5" y1="60.0" x2="1436.5" y2="995.0" stroke="#efefef"/>
<line x1="1481.4" y1="60.0" x2="1481.4" y2="995.0" stroke="#d0d0d0"/>
<text x="1481.4" y="1017.0" font-size="13" fill="#444" text-anchor="middle">1600</text>
<line x1="1526.2" y1="60.0" x2="1526.2" y2="995.0" stroke="#efefef"/>
<line x1="1571.1" y1="60.0" x2="1571.1" y2="995.0" stroke="#d0d0d0"/>
<text x="1571.1" y="1017.0" font-size="13" fill="#444" text-anchor="middle">1700</text>
<line x1="1615.9" y1="60.0" x2="1615.9" y2="995.0" stroke="#efefef"/>
<line x1="1660.8" y1="60.0" x2="1660.8" y2="995.0" stroke="#d0d0d0"/>
<text x="1660.8" y="1017.0" font-size="13" fill="#444" text-anchor="middle">1800</text>
<line x1="1705.6" y1="60.0" x2="1705.6" y2="995.0" stroke="#efefef"/>
<line x1="1750.5" y1="60.0" x2="1750.5" y2="995.0" stroke="#d0d0d0"/>
<text x="1750.5" y="1017.0" font-size="13" fill="#444" text-anchor="middle">1900</text>
<line x1="1795.3" y1="60.0" x2="1795.3" y2="995.0" stroke="#efefef"/>
<line x1="1840.2" y1="60.0" x2="1840.2" y2="995.0" stroke="#d0d0d0"/>
<text x="1840.2" y="1017.0" font-size="13" fill="#444" text-anchor="middle">2000</text>
<line x1="1885.0" y1="60.0" x2="1885.0" y2="995.0" stroke="#efefef"/>
<rect x="100.00" y="158.13" width="8.37" height="836.87" fill="#3b6ea5"/>
<rect x="108.97" y="91.93" width="8.37" height="903.07" fill="#3b6ea5"/>
<rect x="117.94" y="142.62" width="8.37" height="852.38" fill="#3b6ea5"/>
<rect x="126.91" y="178.14" width="8.37" height="816.86" fill="#3b6ea5"/>
<rect x="135.88" y="213.94" width="8.37" height="781.06" fill="#3b6ea5"/>
<rect x="144.85" y="236.90" width="8.37" height="758.10" fill="#3b6ea5"/>
<rect x="153.82" y="224.99" width="8.37" height="770.01" fill="#3b6ea5"/>
<rect x="162.79" y="236.69" width="8.37" height="758.31" fill="#3b6ea5"/>
<rect x="171.76" y="261.85" width="8.37" height="733.15" fill="#3b6ea5"/>
<rect x="180.73" y="290.68" width="8.37" height="704.32" fill="#3b6ea5"/>
<rect x="189.70" y="309.37" width="8.37" height="685.63" fill="#3b6ea5"/>
<rect x="198.67" y="321.74" width="8.37" height="673.26" fill="#3b6ea5"/>
<rect x="207.64" y="333.23" width="8.37" height="661.77" fill="#3b6ea5"/>
<rect x="216.61" y="346.25" width="8.37" height="648.75" fill="#3b6ea5"/>
<rect x="225.58" y="358.87" width="8.37" height="636.13" fill="#3b6ea5"/>
<rect x="234.55" y="367.38" width="8.37" height="627.62" fill="#3b6ea5"/>
<rect x="243.52" y="379.98" width="8.37" height="615.02" fill="#3b6ea5"/>
<rect x="252.49" y="387.85" width="8.37" height="607.15" fill="#3b6ea5"/>
<rect x="261.46" y="398.53" width="8.37" height="596.47" fill="#3b6ea5"/>
<rect x="270.43" y="405.95" width="8.37" height="589.05" fill="#3b6ea5"/>
<rect x="279.40" y="415.86" width="8.37" height="579.14" fill="#3b6ea5"/>
<rect x="288.37" y="426.41" width="8.37" height="568.59" fill="#3b6ea5"/>
<rect x="297.34" y="437.65" width="8.37" height="557.35" fill="#3b6ea5"/>
<rect x="306.31" y="446.88" width="8.37" height="548.12" fill="#3b6ea5"/>
<rect x="315.28" y="459.42" width="8.37" height="535.58" fill="#3b6ea5"/>
<rect x="324.25" y="466.34" width="8.37" height="528.66" fill="#3b6ea5"/>
<rect x="333.22" y="475.01" width="8.37" height="519.99" fill="#3b6ea5"/>
<rect x="342.19" y="489.46" width="8.37" height="505.54" fill="#3b6ea5"/>
<rect x="351.16" y="493.87" width="8.37" height="501.13" fill="#3b6ea5"/>
<rect x="360.13" y="510.07" width="8.37" height="484.93" fill="#3b6ea5"/>
<rect x="369.10" y="514.16" width="8.37" height="480.84" fill="#3b6ea5"/>
<rect x="378.07" y="521.58" width="8.37" height="473.42" fill="#3b6ea5"/>
<rect x="387.04" y="532.99" width="8.37" height="462.01" fill="#3b6ea5"/>
<rect x="396.01" y="538.49" width="8.37" height="456.51" fill="#3b6ea5"/>
<rect x="404.97" y="544.66" width="8.37" height="450.34" fill="#3b6ea5"/>
<rect x="413.94" y="559.20" width="8.37" height="435.80" fill="#3b6ea5"/>
<rect x="422.91" y="566.78" width="8.37" height="428.22" fill="#3b6ea5"/>
<rect x="431.88" y="562.44" width="8.37" height="432.56" fill="#3b6ea5"/>
<rect x="440.85" y="574.25" width="8.37" height="420.75" fill="#3b6ea5"/>
<rect x="449.82" y="583.56" width="8.37" height="411.44" fill="#3b6ea5"/>
<rect x="458.79" y="586.65" width="8.37" height="408.35" fill="#3b6ea5"/>
<rect x="467.76" y="606.37" width="8.37" height="388.63" fill="#3b6ea5"/>
<rect x="476.73" y="628.22" width="8.37" height="366.78" fill="#3b6ea5"/>
<rect x="485.70" y="637.65" width="8.37" height="357.35" fill="#3b6ea5"/>
<rect x="494.67" y="655.28" width="8.37" height="339.72" fill="#3b6ea5"/>
<rect x="503.64" y="660.75" width="8.37" height="334.25" fill="#3b6ea5"/>
<rect x="512.61" y="673.24" width="8.37" height="321.76" fill="#3b6ea5"/>
<rect x="521.58" y="677.97" width="8.37" height="317.03" fill="#3b6ea5"/>
<rect x="530.55" y="683.06" width="8.37" height="311.94" fill="#3b6ea5"/>
<rect x="539.52" y="697.78" width="8.37" height="297.22" fill="#3b6ea5"/>
<rect x="548.49" y="728.50" width="8.37" height="266.50" fill="#3b6ea5"/>
<rect x="557.46" y="728.50" width="8.37" height="266.50" fill="#3b6ea5"/>
<rect x="566.43" y="716.64" width="8.37" height="278.36" fill="#3b6ea5"/>
<rect x="575.40" y="710.41" width="8.37" height="284.59" fill="#3b6ea5"/>
<rect x="584.37" y="761.25" width="8.37" height="233.75" fill="#3b6ea5"/>
<rect x="593.34" y="731.15" width="8.37" height="263.85" fill="#3b6ea5"/>
<rect x="602.31" y="761.25" width="8.37" height="233.75" fill="#3b6ea5"/>
<rect x="611.28" y="742.91" width="8.37" height="252.09" fill="#3b6ea5"/>
<rect x="620.25" y="753.31" width="8.37" height="241.69" fill="#3b6ea5"/>
<rect x="629.22" y="761.25" width="8.37" height="233.75" fill="#3b6ea5"/>
<rect x="638.19" y="731.15" width="8.37" height="263.85" fill="#3b6ea5"/>
<rect x="647.16" y="775.25" width="8.37" height="219.75" fill="#3b6ea5"/>
<rect x="656.13" y="765.60" width="8.37" height="229.40" fill="#3b6ea5"/>
<rect x="665.10" y="786.52" width="8.37" height="208.48" fill="#3b6ea5"/>
<rect x="674.07" y="765.60" width="8.37" height="229.40" fill="#3b6ea5"/>
<rect x="683.04" y="761.25" width="8.37" height="233.75" fill="#3b6ea5"/>
<rect x="692.01" y="786.52" width="8.37" height="208.48" fill="#3b6ea5"/>
<rect x="700.98" y="839.70" width="8.37" height="155.30" fill="#3b6ea5"/>
<rect x="709.95" y="770.26" width="8.37" height="224.74" fill="#3b6ea5"/>
<rect x="718.92" y="817.01" width="8.37" height="177.99" fill="#3b6ea5"/>
<rect x="727.89" y="817.01" width="8.37" height="177.99" fill="#3b6ea5"/>
<rect x="736.86" y="874.15" width="8.37" height="120.85" fill="#3b6ea5"/>
<rect x="745.83" y="817.01" width="8.37" height="177.99" fill="#3b6ea5"/>
<rect x="754.80" y="839.70" width="8.37" height="155.30" fill="#3b6ea5"/>
<rect x="763.77" y="827.40" width="8.37" height="167.60" fill="#3b6ea5"/>
<rect x="772.74" y="808.00" width="8.37" height="187.00" fill="#3b6ea5"/>
<rect x="781.71" y="854.75" width="8.37" height="140.25" fill="#3b6ea5"/>
<rect x="790.68" y="800.06" width="8.37" height="194.94" fill="#3b6ea5"/>
<rect x="799.65" y="854.75" width="8.37" height="140.25" fill="#3b6ea5"/>
<rect x="808.62" y="874.15" width="8.37" height="120.85" fill="#3b6ea5"/>
<rect x="817.59" y="808.00" width="8.37" height="187.00" fill="#3b6ea5"/>
<rect x="826.56" y="874.15" width="8.37" height="120.85" fill="#3b6ea5"/>
<rect x="835.53" y="874.15" width="8.37" height="120.85" fill="#3b6ea5"/>
<rect x="844.50" y="854.75" width="8.37" height="140.25" fill="#3b6ea5"/>
<rect x="853.47" y="901.50" width="8.37" height="93.50" fill="#3b6ea5"/>
<rect x="862.44" y="874.15" width="8.37" height="120.85" fill="#3b6ea5"/>
<rect x="871.41" y="901.50" width="8.37" height="93.50" fill="#3b6ea5"/>
<rect x="880.38" y="854.75" width="8.37" height="140.25" fill="#3b6ea5"/>
<rect x="889.35" y="874.15" width="8.37" height="120.85" fill="#3b6ea5"/>
<rect x="898.32" y="854.75" width="8.37" height="140.25" fill="#3b6ea5"/>
<rect x="907.29" y="948.25" width="8.37" height="46.75" fill="#3b6ea5"/>
<rect x="916.26" y="874.15" width="8.37" height="120.85" fill="#3b6ea5"/>
<rect x="925.23" y="874.15" width="8.37" height="120.85" fill="#3b6ea5"/>
<rect x="934.20" y="874.15" width="8.37" height="120.85" fill="#3b6ea5"/>
<rect x="943.17" y="901.50" width="8.37" height="93.50" fill="#3b6ea5"/>
<rect x="952.14" y="874.15" width="8.37" height="120.85" fill="#3b6ea5"/>
<rect x="961.11" y="874.15" width="8.37" height="120.85" fill="#3b6ea5"/>
<rect x="970.08" y="901.50" width="8.37" height="93.50" fill="#3b6ea5"/>
<rect x="979.05" y="854.75" width="8.37" height="140.25" fill="#3b6ea5"/>
<rect x="988.02" y="948.25" width="8.37" height="46.75" fill="#3b6ea5"/>
<rect x="996.98" y="948.25" width="8.37" height="46.75" fill="#3b6ea5"/>
<rect x="1005.95" y="874.15" width="8.37" height="120.85" fill="#3b6ea5"/>
<rect x="1041.83" y="948.25" width="8.37" height="46.75" fill="#3b6ea5"/>
<rect x="1050.80" y="948.25" width="8.37" height="46.75" fill="#3b6ea5"/>
<rect x="1068.74" y="948.25" width="8.37" height="46.75" fill="#3b6ea5"/>
<rect x="1104.62" y="948.25" width="8.37" height="46.75" fill="#3b6ea5"/>
<rect x="1131.53" y="948.25" width="8.37" height="46.75" fill="#3b6ea5"/>
<rect x="1140.50" y="948.25" width="8.37" height="46.75" fill="#3b6ea5"/>
<rect x="1203.29" y="948.25" width="8.37" height="46.75" fill="#3b6ea5"/>
<rect x="1212.26" y="948.25" width="8.37" height="46.75" fill="#3b6ea5"/>
<rect x="1239.17" y="948.25" width="8.37" height="46.75" fill="#3b6ea5"/>
<rect x="1257.11" y="901.50" width="8.37" height="93.50" fill="#3b6ea5"/>
<rect x="1266.08" y="948.25" width="8.37" height="46.75" fill="#3b6ea5"/>
<rect x="1328.87" y="948.25" width="8.37" height="46.75" fill="#3b6ea5"/>
<rect x="1391.66" y="948.25" width="8.37" height="46.75" fill="#3b6ea5"/>
<rect x="1508.27" y="948.25" width="8.37" height="46.75" fill="#3b6ea5"/>
<rect x="1526.21" y="948.25" width="8.37" height="46.75" fill="#3b6ea5"/>
<rect x="1535.18" y="948.25" width="8.37" height="46.75" fill="#3b6ea5"/>
<rect x="1571.06" y="948.25" width="8.37" height="46.75" fill="#3b6ea5"/>
<rect x="1876.03" y="948.25" width="8.37" height="46.75" fill="#3b6ea5"/>
<line x1="100" y1="995" x2="1885" y2="995" stroke="#111"/>
<line x1="100" y1="60" x2="100" y2="995" stroke="#111"/>
<text x="992.5" y="1055.0" font-size="14" fill="#111" text-anchor="middle">latency (ns)</text>
<text x="22" y="527.5" font-size="14" fill="#111" text-anchor="middle" transform="rotate(-90 22 527.5)">frequency (log2 scale)</text>
</svg>
