<svg xmlns="http://www.w3.org/2000/svg" width="1920" height="1080" viewBox="0 0 1920 1080" font-family="monospace">
<rect width="1920" height="1080" fill="#ffffff"/>
<text x="100" y="32" font-size="19" fill="#111">p99_99_to_p100_by_id.svg, latency against order id  (240 bins)</text>
<line x1="100.0" y1="995.0" x2="1885.0" y2="995.0" stroke="#f0f0f0"/>
<text x="90.0" y="999.0" font-size="13" fill="#444" text-anchor="end">0</text>
<line x1="100.0" y1="951.4" x2="1885.0" y2="951.4" stroke="#efefef"/>
<line x1="100.0" y1="907.7" x2="1885.0" y2="907.7" stroke="#f0f0f0"/>
<text x="90.0" y="911.7" font-size="13" fill="#444" text-anchor="end">200</text>
<line x1="100.0" y1="864.1" x2="1885.0" y2="864.1" stroke="#efefef"/>
<line x1="100.0" y1="820.5" x2="1885.0" y2="820.5" stroke="#f0f0f0"/>
<text x="90.0" y="824.5" font-size="13" fill="#444" text-anchor="end">400</text>
<line x1="100.0" y1="776.9" x2="1885.0" y2="776.9" stroke="#efefef"/>
<line x1="100.0" y1="733.2" x2="1885.0" y2="733.2" stroke="#f0f0f0"/>
<text x="90.0" y="737.2" font-size="13" fill="#444" text-anchor="end">600</text>
<line x1="100.0" y1="689.6" x2="1885.0" y2="689.6" stroke="#efefef"/>
<line x1="100.0" y1="646.0" x2="1885.0" y2="646.0" stroke="#f0f0f0"/>
<text x="90.0" y="650.0" font-size="13" fill="#444" text-anchor="end">800</text>
<line x1="100.0" y1="602.3" x2="1885.0" y2="602.3" stroke="#efefef"/>
<line x1="100.0" y1="558.7" x2="1885.0" y2="558.7" stroke="#f0f0f0"/>
<text x="90.0" y="562.7" font-size="13" fill="#444" text-anchor="end">1000</text>
<line x1="100.0" y1="515.1" x2="1885.0" y2="515.1" stroke="#efefef"/>
<line x1="100.0" y1="471.4" x2="1885.0" y2="471.4" stroke="#f0f0f0"/>
<text x="90.0" y="475.4" font-size="13" fill="#444" text-anchor="end">1200</text>
<line x1="100.0" y1="427.8" x2="1885.0" y2="427.8" stroke="#efefef"/>
<line x1="100.0" y1="384.2" x2="1885.0" y2="384.2" stroke="#f0f0f0"/>
<text x="90.0" y="388.2" font-size="13" fill="#444" text-anchor="end">1400</text>
<line x1="100.0" y1="340.6" x2="1885.0" y2="340.6" stroke="#efefef"/>
<line x1="100.0" y1="296.9" x2="1885.0" y2="296.9" stroke="#f0f0f0"/>
<text x="90.0" y="300.9" font-size="13" fill="#444" text-anchor="end">1600</text>
<line x1="100.0" y1="253.3" x2="1885.0" y2="253.3" stroke="#efefef"/>
<line x1="100.0" y1="209.7" x2="1885.0" y2="209.7" stroke="#f0f0f0"/>
<text x="90.0" y="213.7" font-size="13" fill="#444" text-anchor="end">1800</text>
<line x1="100.0" y1="166.0" x2="1885.0" y2="166.0" stroke="#efefef"/>
<line x1="100.0" y1="122.4" x2="1885.0" y2="122.4" stroke="#f0f0f0"/>
<text x="90.0" y="126.4" font-size="13" fill="#444" text-anchor="end">2000</text>
<line x1="100.0" y1="78.8" x2="1885.0" y2="78.8" stroke="#efefef"/>
<line x1="100.0" y1="60.0" x2="100.0" y2="995.0" stroke="#d0d0d0"/>
<text x="100.0" y="1017.0" font-size="13" fill="#444" text-anchor="middle">0</text>
<line x1="144.6" y1="60.0" x2="144.6" y2="995.0" stroke="#efefef"/>
<line x1="189.3" y1="60.0" x2="189.3" y2="995.0" stroke="#d0d0d0"/>
<text x="189.3" y="1017.0" font-size="13" fill="#444" text-anchor="middle">1.0M</text>
<line x1="233.9" y1="60.0" x2="233.9" y2="995.0" stroke="#efefef"/>
<line x1="278.6" y1="60.0" x2="278.6" y2="995.0" stroke="#d0d0d0"/>
<text x="278.6" y="1017.0" font-size="13" fill="#444" text-anchor="middle">2.0M</text>
<line x1="323.2" y1="60.0" x2="323.2" y2="995.0" stroke="#efefef"/>
<line x1="367.8" y1="60.0" x2="367.8" y2="995.0" stroke="#d0d0d0"/>
<text x="367.8" y="1017.0" font-size="13" fill="#444" text-anchor="middle">3.0M</text>
<line x1="412.5" y1="60.0" x2="412.5" y2="995.0" stroke="#efefef"/>
<line x1="457.1" y1="60.0" x2="457.1" y2="995.0" stroke="#d0d0d0"/>
<text x="457.1" y="1017.0" font-size="13" fill="#444" text-anchor="middle">4.0M</text>
<line x1="501.7" y1="60.0" x2="501.7" y2="995.0" stroke="#efefef"/>
<line x1="546.4" y1="60.0" x2="546.4" y2="995.0" stroke="#d0d0d0"/>
<text x="546.4" y="1017.0" font-size="13" fill="#444" text-anchor="middle">5.0M</text>
<line x1="591.0" y1="60.0" x2="591.0" y2="995.0" stroke="#efefef"/>
<line x1="635.7" y1="60.0" x2="635.7" y2="995.0" stroke="#d0d0d0"/>
<text x="635.7" y="1017.0" font-size="13" fill="#444" text-anchor="middle">6.0M</text>
<line x1="680.3" y1="60.0" x2="680.3" y2="995.0" stroke="#efefef"/>
<line x1="724.9" y1="60.0" x2="724.9" y2="995.0" stroke="#d0d0d0"/>
<text x="724.9" y="1017.0" font-size="13" fill="#444" text-anchor="middle">7.0M</text>
<line x1="769.6" y1="60.0" x2="769.6" y2="995.0" stroke="#efefef"/>
<line x1="814.2" y1="60.0" x2="814.2" y2="995.0" stroke="#d0d0d0"/>
<text x="814.2" y="1017.0" font-size="13" fill="#444" text-anchor="middle">8.0M</text>
<line x1="858.8" y1="60.0" x2="858.8" y2="995.0" stroke="#efefef"/>
<line x1="903.5" y1="60.0" x2="903.5" y2="995.0" stroke="#d0d0d0"/>
<text x="903.5" y="1017.0" font-size="13" fill="#444" text-anchor="middle">9.0M</text>
<line x1="948.1" y1="60.0" x2="948.1" y2="995.0" stroke="#efefef"/>
<line x1="992.8" y1="60.0" x2="992.8" y2="995.0" stroke="#d0d0d0"/>
<text x="992.8" y="1017.0" font-size="13" fill="#444" text-anchor="middle">10.0M</text>
<line x1="1037.4" y1="60.0" x2="1037.4" y2="995.0" stroke="#efefef"/>
<line x1="1082.0" y1="60.0" x2="1082.0" y2="995.0" stroke="#d0d0d0"/>
<text x="1082.0" y="1017.0" font-size="13" fill="#444" text-anchor="middle">11.0M</text>
<line x1="1126.7" y1="60.0" x2="1126.7" y2="995.0" stroke="#efefef"/>
<line x1="1171.3" y1="60.0" x2="1171.3" y2="995.0" stroke="#d0d0d0"/>
<text x="1171.3" y="1017.0" font-size="13" fill="#444" text-anchor="middle">12.0M</text>
<line x1="1215.9" y1="60.0" x2="1215.9" y2="995.0" stroke="#efefef"/>
<line x1="1260.6" y1="60.0" x2="1260.6" y2="995.0" stroke="#d0d0d0"/>
<text x="1260.6" y="1017.0" font-size="13" fill="#444" text-anchor="middle">13.0M</text>
<line x1="1305.2" y1="60.0" x2="1305.2" y2="995.0" stroke="#efefef"/>
<line x1="1349.9" y1="60.0" x2="1349.9" y2="995.0" stroke="#d0d0d0"/>
<text x="1349.9" y="1017.0" font-size="13" fill="#444" text-anchor="middle">14.0M</text>
<line x1="1394.5" y1="60.0" x2="1394.5" y2="995.0" stroke="#efefef"/>
<line x1="1439.1" y1="60.0" x2="1439.1" y2="995.0" stroke="#d0d0d0"/>
<text x="1439.1" y="1017.0" font-size="13" fill="#444" text-anchor="middle">15.0M</text>
<line x1="1483.8" y1="60.0" x2="1483.8" y2="995.0" stroke="#efefef"/>
<line x1="1528.4" y1="60.0" x2="1528.4" y2="995.0" stroke="#d0d0d0"/>
<text x="1528.4" y="1017.0" font-size="13" fill="#444" text-anchor="middle">16.0M</text>
<line x1="1573.0" y1="60.0" x2="1573.0" y2="995.0" stroke="#efefef"/>
<line x1="1617.7" y1="60.0" x2="1617.7" y2="995.0" stroke="#d0d0d0"/>
<text x="1617.7" y="1017.0" font-size="13" fill="#444" text-anchor="middle">17.0M</text>
<line x1="1662.3" y1="60.0" x2="1662.3" y2="995.0" stroke="#efefef"/>
<line x1="1707.0" y1="60.0" x2="1707.0" y2="995.0" stroke="#d0d0d0"/>
<text x="1707.0" y="1017.0" font-size="13" fill="#444" text-anchor="middle">18.0M</text>
<line x1="1751.6" y1="60.0" x2="1751.6" y2="995.0" stroke="#efefef"/>
<line x1="1796.2" y1="60.0" x2="1796.2" y2="995.0" stroke="#d0d0d0"/>
<text x="1796.2" y="1017.0" font-size="13" fill="#444" text-anchor="middle">19.0M</text>
<line x1="1840.9" y1="60.0" x2="1840.9" y2="995.0" stroke="#efefef"/>
<rect x="100.00" y="720.13" width="6.84" height="274.87" fill="#c3d6e8"/>
<rect x="100.00" y="781.94" width="6.84" height="213.06" fill="#3b6ea5"/>
<rect x="107.44" y="707.05" width="6.84" height="287.95" fill="#c3d6e8"/>
<rect x="107.44" y="707.05" width="6.84" height="287.95" fill="#3b6ea5"/>
<rect x="114.88" y="746.31" width="6.84" height="248.69" fill="#c3d6e8"/>
<rect x="114.88" y="789.32" width="6.84" height="205.68" fill="#3b6ea5"/>
<rect x="122.31" y="654.69" width="6.84" height="340.31" fill="#c3d6e8"/>
<rect x="122.31" y="757.95" width="6.84" height="237.05" fill="#3b6ea5"/>
<rect x="129.75" y="785.58" width="6.84" height="209.42" fill="#c3d6e8"/>
<rect x="129.75" y="792.85" width="6.84" height="202.15" fill="#3b6ea5"/>
<rect x="137.19" y="685.23" width="6.84" height="309.77" fill="#c3d6e8"/>
<rect x="137.19" y="767.25" width="6.84" height="227.75" fill="#3b6ea5"/>
<rect x="144.62" y="741.95" width="6.84" height="253.05" fill="#c3d6e8"/>
<rect x="144.62" y="771.40" width="6.84" height="223.60" fill="#3b6ea5"/>
<rect x="152.06" y="711.41" width="6.84" height="283.59" fill="#c3d6e8"/>
<rect x="152.06" y="752.13" width="6.84" height="242.87" fill="#3b6ea5"/>
<rect x="159.50" y="589.25" width="6.84" height="405.75" fill="#c3d6e8"/>
<rect x="159.50" y="685.23" width="6.84" height="309.77" fill="#3b6ea5"/>
<rect x="166.94" y="768.13" width="6.84" height="226.87" fill="#c3d6e8"/>
<rect x="166.94" y="793.21" width="6.84" height="201.79" fill="#3b6ea5"/>
<rect x="174.38" y="624.15" width="6.84" height="370.85" fill="#c3d6e8"/>
<rect x="174.38" y="743.82" width="6.84" height="251.18" fill="#3b6ea5"/>
<rect x="181.81" y="632.88" width="6.84" height="362.12" fill="#c3d6e8"/>
<rect x="181.81" y="742.49" width="6.84" height="252.51" fill="#3b6ea5"/>
<rect x="189.25" y="707.05" width="6.84" height="287.95" fill="#c3d6e8"/>
<rect x="189.25" y="760.65" width="6.84" height="234.35" fill="#3b6ea5"/>
<rect x="196.69" y="645.96" width="6.84" height="349.04" fill="#c3d6e8"/>
<rect x="196.69" y="713.59" width="6.84" height="281.41" fill="#3b6ea5"/>
<rect x="204.12" y="558.71" width="6.84" height="436.29" fill="#c3d6e8"/>
<rect x="204.12" y="758.09" width="6.84" height="236.91" fill="#3b6ea5"/>
<rect x="211.56" y="663.42" width="6.84" height="331.58" fill="#c3d6e8"/>
<rect x="211.56" y="755.04" width="6.84" height="239.96" fill="#3b6ea5"/>
<rect x="219.00" y="707.05" width="6.84" height="287.95" fill="#c3d6e8"/>
<rect x="219.00" y="763.76" width="6.84" height="231.24" fill="#3b6ea5"/>
<rect x="226.44" y="720.13" width="6.84" height="274.87" fill="#c3d6e8"/>
<rect x="226.44" y="724.50" width="6.84" height="270.50" fill="#3b6ea5"/>
<rect x="233.88" y="737.59" width="6.84" height="257.41" fill="#c3d6e8"/>
<rect x="233.88" y="787.03" width="6.84" height="207.97" fill="#3b6ea5"/>
<rect x="241.31" y="759.40" width="6.84" height="235.60" fill="#c3d6e8"/>
<rect x="241.31" y="789.94" width="6.84" height="205.06" fill="#3b6ea5"/>
<rect x="248.75" y="781.22" width="6.84" height="213.78" fill="#c3d6e8"/>
<rect x="248.75" y="796.49" width="6.84" height="198.51" fill="#3b6ea5"/>
<rect x="256.19" y="637.24" width="6.84" height="357.76" fill="#c3d6e8"/>
<rect x="256.19" y="745.44" width="6.84" height="249.56" fill="#3b6ea5"/>
<rect x="263.62" y="759.40" width="6.84" height="235.60" fill="#c3d6e8"/>
<rect x="263.62" y="768.13" width="6.84" height="226.87" fill="#3b6ea5"/>
<rect x="271.06" y="584.88" width="6.84" height="410.12" fill="#c3d6e8"/>
<rect x="271.06" y="750.40" width="6.84" height="244.60" fill="#3b6ea5"/>
<rect x="278.50" y="755.04" width="6.84" height="239.96" fill="#c3d6e8"/>
<rect x="278.50" y="779.03" width="6.84" height="215.97" fill="#3b6ea5"/>
<rect x="285.94" y="768.13" width="6.84" height="226.87" fill="#c3d6e8"/>
<rect x="285.94" y="789.07" width="6.84" height="205.93" fill="#3b6ea5"/>
<rect x="293.38" y="759.40" width="6.84" height="235.60" fill="#c3d6e8"/>
<rect x="293.38" y="784.12" width="6.84" height="210.88" fill="#3b6ea5"/>
<rect x="300.81" y="741.95" width="6.84" height="253.05" fill="#c3d6e8"/>
<rect x="300.81" y="741.95" width="6.84" height="253.05" fill="#3b6ea5"/>
<rect x="308.25" y="772.49" width="6.84" height="222.51" fill="#c3d6e8"/>
<rect x="308.25" y="789.94" width="6.84" height="205.06" fill="#3b6ea5"/>
<rect x="315.69" y="645.96" width="6.84" height="349.04" fill="#c3d6e8"/>
<rect x="315.69" y="758.04" width="6.84" height="236.96" fill="#3b6ea5"/>
<rect x="323.12" y="462.72" width="6.84" height="532.28" fill="#c3d6e8"/>
<rect x="323.12" y="732.50" width="6.84" height="262.50" fill="#3b6ea5"/>
<rect x="330.56" y="580.52" width="6.84" height="414.48" fill="#c3d6e8"/>
<rect x="330.56" y="753.45" width="6.84" height="241.55" fill="#3b6ea5"/>
<rect x="338.00" y="755.04" width="6.84" height="239.96" fill="#c3d6e8"/>
<rect x="338.00" y="790.67" width="6.84" height="204.33" fill="#3b6ea5"/>
<rect x="345.44" y="715.77" width="6.84" height="279.23" fill="#c3d6e8"/>
<rect x="345.44" y="772.01" width="6.84" height="222.99" fill="#3b6ea5"/>
<rect x="352.88" y="755.04" width="6.84" height="239.96" fill="#c3d6e8"/>
<rect x="352.88" y="786.45" width="6.84" height="208.55" fill="#3b6ea5"/>
<rect x="360.31" y="763.76" width="6.84" height="231.24" fill="#c3d6e8"/>
<rect x="360.31" y="792.43" width="6.84" height="202.57" fill="#3b6ea5"/>
<rect x="367.75" y="283.84" width="6.84" height="711.16" fill="#c3d6e8"/>
<rect x="367.75" y="703.12" width="6.84" height="291.88" fill="#3b6ea5"/>
<rect x="375.19" y="654.69" width="6.84" height="340.31" fill="#c3d6e8"/>
<rect x="375.19" y="741.22" width="6.84" height="253.78" fill="#3b6ea5"/>
<rect x="382.63" y="759.40" width="6.84" height="235.60" fill="#c3d6e8"/>
<rect x="382.63" y="781.84" width="6.84" height="213.16" fill="#3b6ea5"/>
<rect x="390.06" y="720.13" width="6.84" height="274.87" fill="#c3d6e8"/>
<rect x="390.06" y="763.76" width="6.84" height="231.24" fill="#3b6ea5"/>
<rect x="397.50" y="772.49" width="6.84" height="222.51" fill="#c3d6e8"/>
<rect x="397.50" y="793.58" width="6.84" height="201.42" fill="#3b6ea5"/>
<rect x="404.94" y="567.43" width="6.84" height="427.57" fill="#c3d6e8"/>
<rect x="404.94" y="756.62" width="6.84" height="238.38" fill="#3b6ea5"/>
<rect x="412.38" y="541.25" width="6.84" height="453.75" fill="#c3d6e8"/>
<rect x="412.38" y="746.31" width="6.84" height="248.69" fill="#3b6ea5"/>
<rect x="419.81" y="676.51" width="6.84" height="318.49" fill="#c3d6e8"/>
<rect x="419.81" y="711.41" width="6.84" height="283.59" fill="#3b6ea5"/>
<rect x="427.25" y="789.94" width="6.84" height="205.06" fill="#c3d6e8"/>
<rect x="427.25" y="795.40" width="6.84" height="199.60" fill="#3b6ea5"/>
<rect x="434.69" y="702.68" width="6.84" height="292.32" fill="#c3d6e8"/>
<rect x="434.69" y="778.10" width="6.84" height="216.90" fill="#3b6ea5"/>
<rect x="442.13" y="798.67" width="6.84" height="196.33" fill="#c3d6e8"/>
<rect x="442.13" y="800.85" width="6.84" height="194.15" fill="#3b6ea5"/>
<rect x="449.56" y="781.22" width="6.84" height="213.78" fill="#c3d6e8"/>
<rect x="449.56" y="792.12" width="6.84" height="202.88" fill="#3b6ea5"/>
<rect x="457.00" y="772.49" width="6.84" height="222.51" fill="#c3d6e8"/>
<rect x="457.00" y="787.76" width="6.84" height="207.24" fill="#3b6ea5"/>
<rect x="464.44" y="611.06" width="6.84" height="383.94" fill="#c3d6e8"/>
<rect x="464.44" y="766.19" width="6.84" height="228.81" fill="#3b6ea5"/>
<rect x="471.88" y="750.68" width="6.84" height="244.32" fill="#c3d6e8"/>
<rect x="471.88" y="772.49" width="6.84" height="222.51" fill="#3b6ea5"/>
<rect x="479.31" y="741.95" width="6.84" height="253.05" fill="#c3d6e8"/>
<rect x="479.31" y="766.38" width="6.84" height="228.62" fill="#3b6ea5"/>
<rect x="486.75" y="746.31" width="6.84" height="248.69" fill="#c3d6e8"/>
<rect x="486.75" y="774.67" width="6.84" height="220.33" fill="#3b6ea5"/>
<rect x="494.19" y="580.52" width="6.84" height="414.48" fill="#c3d6e8"/>
<rect x="494.19" y="756.13" width="6.84" height="238.87" fill="#3b6ea5"/>
<rect x="501.63" y="414.73" width="6.84" height="580.27" fill="#c3d6e8"/>
<rect x="501.63" y="721.38" width="6.84" height="273.62" fill="#3b6ea5"/>
<rect x="509.06" y="654.69" width="6.84" height="340.31" fill="#c3d6e8"/>
<rect x="509.06" y="752.34" width="6.84" height="242.66" fill="#3b6ea5"/>
<rect x="516.50" y="680.87" width="6.84" height="314.13" fill="#c3d6e8"/>
<rect x="516.50" y="776.06" width="6.84" height="218.94" fill="#3b6ea5"/>
<rect x="523.94" y="528.17" width="6.84" height="466.83" fill="#c3d6e8"/>
<rect x="523.94" y="736.56" width="6.84" height="258.44" fill="#3b6ea5"/>
<rect x="531.38" y="685.23" width="6.84" height="309.77" fill="#c3d6e8"/>
<rect x="531.38" y="767.12" width="6.84" height="227.88" fill="#3b6ea5"/>
<rect x="538.81" y="785.58" width="6.84" height="209.42" fill="#c3d6e8"/>
<rect x="538.81" y="799.21" width="6.84" height="195.79" fill="#3b6ea5"/>
<rect x="546.25" y="789.94" width="6.84" height="205.06" fill="#c3d6e8"/>
<rect x="546.25" y="798.67" width="6.84" height="196.33" fill="#3b6ea5"/>
<rect x="553.69" y="711.41" width="6.84" height="283.59" fill="#c3d6e8"/>
<rect x="553.69" y="768.13" width="6.84" height="226.87" fill="#3b6ea5"/>
<rect x="561.12" y="685.23" width="6.84" height="309.77" fill="#c3d6e8"/>
<rect x="561.12" y="767.69" width="6.84" height="227.31" fill="#3b6ea5"/>
<rect x="568.56" y="589.25" width="6.84" height="405.75" fill="#c3d6e8"/>
<rect x="568.56" y="759.80" width="6.84" height="235.20" fill="#3b6ea5"/>
<rect x="576.00" y="685.23" width="6.84" height="309.77" fill="#c3d6e8"/>
<rect x="576.00" y="755.91" width="6.84" height="239.09" fill="#3b6ea5"/>
<rect x="583.44" y="789.94" width="6.84" height="205.06" fill="#c3d6e8"/>
<rect x="583.44" y="798.67" width="6.84" height="196.33" fill="#3b6ea5"/>
<rect x="590.88" y="750.68" width="6.84" height="244.32" fill="#c3d6e8"/>
<rect x="590.88" y="787.76" width="6.84" height="207.24" fill="#3b6ea5"/>
<rect x="598.31" y="667.78" width="6.84" height="327.22" fill="#c3d6e8"/>
<rect x="598.31" y="765.22" width="6.84" height="229.78" fill="#3b6ea5"/>
<rect x="605.75" y="794.30" width="6.84" height="200.70" fill="#c3d6e8"/>
<rect x="605.75" y="794.30" width="6.84" height="200.70" fill="#3b6ea5"/>
<rect x="613.19" y="689.59" width="6.84" height="305.41" fill="#c3d6e8"/>
<rect x="613.19" y="771.04" width="6.84" height="223.96" fill="#3b6ea5"/>
<rect x="620.63" y="663.42" width="6.84" height="331.58" fill="#c3d6e8"/>
<rect x="620.63" y="744.86" width="6.84" height="250.14" fill="#3b6ea5"/>
<rect x="628.06" y="772.49" width="6.84" height="222.51" fill="#c3d6e8"/>
<rect x="628.06" y="789.94" width="6.84" height="205.06" fill="#3b6ea5"/>
<rect x="635.50" y="641.60" width="6.84" height="353.40" fill="#c3d6e8"/>
<rect x="635.50" y="769.47" width="6.84" height="225.53" fill="#3b6ea5"/>
<rect x="642.94" y="750.68" width="6.84" height="244.32" fill="#c3d6e8"/>
<rect x="642.94" y="781.22" width="6.84" height="213.78" fill="#3b6ea5"/>
<rect x="650.38" y="759.40" width="6.84" height="235.60" fill="#c3d6e8"/>
<rect x="650.38" y="780.49" width="6.84" height="214.51" fill="#3b6ea5"/>
<rect x="657.81" y="776.85" width="6.84" height="218.15" fill="#c3d6e8"/>
<rect x="657.81" y="788.31" width="6.84" height="206.69" fill="#3b6ea5"/>
<rect x="665.25" y="676.51" width="6.84" height="318.49" fill="#c3d6e8"/>
<rect x="665.25" y="753.45" width="6.84" height="241.55" fill="#3b6ea5"/>
<rect x="672.69" y="663.42" width="6.84" height="331.58" fill="#c3d6e8"/>
<rect x="672.69" y="762.42" width="6.84" height="232.58" fill="#3b6ea5"/>
<rect x="680.13" y="768.13" width="6.84" height="226.87" fill="#c3d6e8"/>
<rect x="680.13" y="786.67" width="6.84" height="208.33" fill="#3b6ea5"/>
<rect x="687.56" y="510.71" width="6.84" height="484.29" fill="#c3d6e8"/>
<rect x="687.56" y="735.21" width="6.84" height="259.79" fill="#3b6ea5"/>
<rect x="695.00" y="772.49" width="6.84" height="222.51" fill="#c3d6e8"/>
<rect x="695.00" y="794.30" width="6.84" height="200.70" fill="#3b6ea5"/>
<rect x="702.44" y="707.05" width="6.84" height="287.95" fill="#c3d6e8"/>
<rect x="702.44" y="773.04" width="6.84" height="221.96" fill="#3b6ea5"/>
<rect x="709.88" y="781.22" width="6.84" height="213.78" fill="#c3d6e8"/>
<rect x="709.88" y="795.40" width="6.84" height="199.60" fill="#3b6ea5"/>
<rect x="717.31" y="663.42" width="6.84" height="331.58" fill="#c3d6e8"/>
<rect x="717.31" y="756.49" width="6.84" height="238.51" fill="#3b6ea5"/>
<rect x="724.75" y="672.14" width="6.84" height="322.86" fill="#c3d6e8"/>
<rect x="724.75" y="739.04" width="6.84" height="255.96" fill="#3b6ea5"/>
<rect x="732.19" y="340.56" width="6.84" height="654.44" fill="#c3d6e8"/>
<rect x="732.19" y="739.40" width="6.84" height="255.60" fill="#3b6ea5"/>
<rect x="739.63" y="737.59" width="6.84" height="257.41" fill="#c3d6e8"/>
<rect x="739.63" y="776.85" width="6.84" height="218.15" fill="#3b6ea5"/>
<rect x="747.06" y="580.52" width="6.84" height="414.48" fill="#c3d6e8"/>
<rect x="747.06" y="747.50" width="6.84" height="247.50" fill="#3b6ea5"/>
<rect x="754.50" y="759.40" width="6.84" height="235.60" fill="#c3d6e8"/>
<rect x="754.50" y="783.83" width="6.84" height="211.17" fill="#3b6ea5"/>
<rect x="761.94" y="645.96" width="6.84" height="349.04" fill="#c3d6e8"/>
<rect x="761.94" y="742.39" width="6.84" height="252.61" fill="#3b6ea5"/>
<rect x="769.38" y="776.85" width="6.84" height="218.15" fill="#c3d6e8"/>
<rect x="769.38" y="789.94" width="6.84" height="205.06" fill="#3b6ea5"/>
<rect x="776.81" y="680.87" width="6.84" height="314.13" fill="#c3d6e8"/>
<rect x="776.81" y="763.76" width="6.84" height="231.24" fill="#3b6ea5"/>
<rect x="784.25" y="628.51" width="6.84" height="366.49" fill="#c3d6e8"/>
<rect x="784.25" y="757.77" width="6.84" height="237.23" fill="#3b6ea5"/>
<rect x="791.69" y="772.49" width="6.84" height="222.51" fill="#c3d6e8"/>
<rect x="791.69" y="790.57" width="6.84" height="204.43" fill="#3b6ea5"/>
<rect x="799.13" y="750.68" width="6.84" height="244.32" fill="#c3d6e8"/>
<rect x="799.13" y="789.15" width="6.84" height="205.85" fill="#3b6ea5"/>
<rect x="806.56" y="737.59" width="6.84" height="257.41" fill="#c3d6e8"/>
<rect x="806.56" y="779.97" width="6.84" height="215.03" fill="#3b6ea5"/>
<rect x="814.00" y="776.85" width="6.84" height="218.15" fill="#c3d6e8"/>
<rect x="814.00" y="794.30" width="6.84" height="200.70" fill="#3b6ea5"/>
<rect x="821.44" y="755.04" width="6.84" height="239.96" fill="#c3d6e8"/>
<rect x="821.44" y="785.58" width="6.84" height="209.42" fill="#3b6ea5"/>
<rect x="828.88" y="781.22" width="6.84" height="213.78" fill="#c3d6e8"/>
<rect x="828.88" y="794.30" width="6.84" height="200.70" fill="#3b6ea5"/>
<rect x="836.31" y="606.70" width="6.84" height="388.30" fill="#c3d6e8"/>
<rect x="836.31" y="763.14" width="6.84" height="231.86" fill="#3b6ea5"/>
<rect x="843.75" y="554.34" width="6.84" height="440.66" fill="#c3d6e8"/>
<rect x="843.75" y="715.10" width="6.84" height="279.90" fill="#3b6ea5"/>
<rect x="851.19" y="641.60" width="6.84" height="353.40" fill="#c3d6e8"/>
<rect x="851.19" y="748.37" width="6.84" height="246.63" fill="#3b6ea5"/>
<rect x="858.63" y="759.40" width="6.84" height="235.60" fill="#c3d6e8"/>
<rect x="858.63" y="787.21" width="6.84" height="207.79" fill="#3b6ea5"/>
<rect x="866.06" y="615.42" width="6.84" height="379.58" fill="#c3d6e8"/>
<rect x="866.06" y="738.68" width="6.84" height="256.32" fill="#3b6ea5"/>
<rect x="873.50" y="715.77" width="6.84" height="279.23" fill="#c3d6e8"/>
<rect x="873.50" y="769.00" width="6.84" height="226.00" fill="#3b6ea5"/>
<rect x="880.94" y="571.79" width="6.84" height="423.21" fill="#c3d6e8"/>
<rect x="880.94" y="738.90" width="6.84" height="256.10" fill="#3b6ea5"/>
<rect x="888.38" y="776.85" width="6.84" height="218.15" fill="#c3d6e8"/>
<rect x="888.38" y="788.49" width="6.84" height="206.51" fill="#3b6ea5"/>
<rect x="895.81" y="768.13" width="6.84" height="226.87" fill="#c3d6e8"/>
<rect x="895.81" y="788.85" width="6.84" height="206.15" fill="#3b6ea5"/>
<rect x="903.25" y="580.52" width="6.84" height="414.48" fill="#c3d6e8"/>
<rect x="903.25" y="723.87" width="6.84" height="271.13" fill="#3b6ea5"/>
<rect x="910.69" y="720.13" width="6.84" height="274.87" fill="#c3d6e8"/>
<rect x="910.69" y="762.89" width="6.84" height="232.11" fill="#3b6ea5"/>
<rect x="918.13" y="480.17" width="6.84" height="514.83" fill="#c3d6e8"/>
<rect x="918.13" y="739.57" width="6.84" height="255.43" fill="#3b6ea5"/>
<rect x="925.56" y="589.25" width="6.84" height="405.75" fill="#c3d6e8"/>
<rect x="925.56" y="748.13" width="6.84" height="246.87" fill="#3b6ea5"/>
<rect x="933.00" y="606.70" width="6.84" height="388.30" fill="#c3d6e8"/>
<rect x="933.00" y="745.52" width="6.84" height="249.48" fill="#3b6ea5"/>
<rect x="940.44" y="597.97" width="6.84" height="397.03" fill="#c3d6e8"/>
<rect x="940.44" y="757.95" width="6.84" height="237.05" fill="#3b6ea5"/>
<rect x="947.88" y="715.77" width="6.84" height="279.23" fill="#c3d6e8"/>
<rect x="947.88" y="774.91" width="6.84" height="220.09" fill="#3b6ea5"/>
<rect x="955.31" y="781.22" width="6.84" height="213.78" fill="#c3d6e8"/>
<rect x="955.31" y="795.18" width="6.84" height="199.82" fill="#3b6ea5"/>
<rect x="962.75" y="427.82" width="6.84" height="567.18" fill="#c3d6e8"/>
<rect x="962.75" y="741.64" width="6.84" height="253.36" fill="#3b6ea5"/>
<rect x="970.19" y="672.14" width="6.84" height="322.86" fill="#c3d6e8"/>
<rect x="970.19" y="764.20" width="6.84" height="230.80" fill="#3b6ea5"/>
<rect x="977.63" y="698.32" width="6.84" height="296.68" fill="#c3d6e8"/>
<rect x="977.63" y="784.49" width="6.84" height="210.51" fill="#3b6ea5"/>
<rect x="985.06" y="659.05" width="6.84" height="335.95" fill="#c3d6e8"/>
<rect x="985.06" y="758.96" width="6.84" height="236.04" fill="#3b6ea5"/>
<rect x="992.50" y="785.58" width="6.84" height="209.42" fill="#c3d6e8"/>
<rect x="992.50" y="792.43" width="6.84" height="202.57" fill="#3b6ea5"/>
<rect x="999.94" y="772.49" width="6.84" height="222.51" fill="#c3d6e8"/>
<rect x="999.94" y="785.58" width="6.84" height="209.42" fill="#3b6ea5"/>
<rect x="1007.38" y="711.41" width="6.84" height="283.59" fill="#c3d6e8"/>
<rect x="1007.38" y="770.07" width="6.84" height="224.93" fill="#3b6ea5"/>
<rect x="1014.81" y="746.31" width="6.84" height="248.69" fill="#c3d6e8"/>
<rect x="1014.81" y="785.58" width="6.84" height="209.42" fill="#3b6ea5"/>
<rect x="1022.25" y="759.40" width="6.84" height="235.60" fill="#c3d6e8"/>
<rect x="1022.25" y="793.21" width="6.84" height="201.79" fill="#3b6ea5"/>
<rect x="1029.69" y="707.05" width="6.84" height="287.95" fill="#c3d6e8"/>
<rect x="1029.69" y="776.42" width="6.84" height="218.58" fill="#3b6ea5"/>
<rect x="1037.12" y="606.70" width="6.84" height="388.30" fill="#c3d6e8"/>
<rect x="1037.12" y="768.56" width="6.84" height="226.44" fill="#3b6ea5"/>
<rect x="1044.56" y="768.13" width="6.84" height="226.87" fill="#c3d6e8"/>
<rect x="1044.56" y="772.49" width="6.84" height="222.51" fill="#3b6ea5"/>
<rect x="1052.00" y="554.34" width="6.84" height="440.66" fill="#c3d6e8"/>
<rect x="1052.00" y="743.69" width="6.84" height="251.31" fill="#3b6ea5"/>
<rect x="1059.44" y="724.50" width="6.84" height="270.50" fill="#c3d6e8"/>
<rect x="1059.44" y="780.42" width="6.84" height="214.58" fill="#3b6ea5"/>
<rect x="1066.88" y="803.03" width="6.84" height="191.97" fill="#c3d6e8"/>
<rect x="1066.88" y="803.03" width="6.84" height="191.97" fill="#3b6ea5"/>
<rect x="1074.31" y="672.14" width="6.84" height="322.86" fill="#c3d6e8"/>
<rect x="1074.31" y="761.89" width="6.84" height="233.11" fill="#3b6ea5"/>
<rect x="1081.75" y="650.33" width="6.84" height="344.67" fill="#c3d6e8"/>
<rect x="1081.75" y="765.95" width="6.84" height="229.05" fill="#3b6ea5"/>
<rect x="1089.19" y="737.59" width="6.84" height="257.41" fill="#c3d6e8"/>
<rect x="1089.19" y="783.09" width="6.84" height="211.91" fill="#3b6ea5"/>
<rect x="1096.62" y="401.64" width="6.84" height="593.36" fill="#c3d6e8"/>
<rect x="1096.62" y="699.33" width="6.84" height="295.67" fill="#3b6ea5"/>
<rect x="1104.06" y="641.60" width="6.84" height="353.40" fill="#c3d6e8"/>
<rect x="1104.06" y="770.07" width="6.84" height="224.93" fill="#3b6ea5"/>
<rect x="1111.50" y="567.43" width="6.84" height="427.57" fill="#c3d6e8"/>
<rect x="1111.50" y="727.77" width="6.84" height="267.23" fill="#3b6ea5"/>
<rect x="1118.94" y="776.85" width="6.84" height="218.15" fill="#c3d6e8"/>
<rect x="1118.94" y="796.49" width="6.84" height="198.51" fill="#3b6ea5"/>
<rect x="1126.38" y="632.88" width="6.84" height="362.12" fill="#c3d6e8"/>
<rect x="1126.38" y="750.68" width="6.84" height="244.32" fill="#3b6ea5"/>
<rect x="1133.81" y="497.62" width="6.84" height="497.38" fill="#c3d6e8"/>
<rect x="1133.81" y="728.48" width="6.84" height="266.52" fill="#3b6ea5"/>
<rect x="1141.25" y="567.43" width="6.84" height="427.57" fill="#c3d6e8"/>
<rect x="1141.25" y="761.38" width="6.84" height="233.62" fill="#3b6ea5"/>
<rect x="1148.69" y="650.33" width="6.84" height="344.67" fill="#c3d6e8"/>
<rect x="1148.69" y="764.93" width="6.84" height="230.07" fill="#3b6ea5"/>
<rect x="1156.13" y="750.68" width="6.84" height="244.32" fill="#c3d6e8"/>
<rect x="1156.13" y="782.67" width="6.84" height="212.33" fill="#3b6ea5"/>
<rect x="1163.56" y="619.79" width="6.84" height="375.21" fill="#c3d6e8"/>
<rect x="1163.56" y="745.98" width="6.84" height="249.02" fill="#3b6ea5"/>
<rect x="1171.00" y="759.40" width="6.84" height="235.60" fill="#c3d6e8"/>
<rect x="1171.00" y="783.40" width="6.84" height="211.60" fill="#3b6ea5"/>
<rect x="1178.44" y="776.85" width="6.84" height="218.15" fill="#c3d6e8"/>
<rect x="1178.44" y="794.85" width="6.84" height="200.15" fill="#3b6ea5"/>
<rect x="1185.88" y="772.49" width="6.84" height="222.51" fill="#c3d6e8"/>
<rect x="1185.88" y="790.81" width="6.84" height="204.19" fill="#3b6ea5"/>
<rect x="1193.31" y="707.05" width="6.84" height="287.95" fill="#c3d6e8"/>
<rect x="1193.31" y="776.85" width="6.84" height="218.15" fill="#3b6ea5"/>
<rect x="1200.75" y="371.10" width="6.84" height="623.90" fill="#c3d6e8"/>
<rect x="1200.75" y="724.06" width="6.84" height="270.94" fill="#3b6ea5"/>
<rect x="1208.19" y="589.25" width="6.84" height="405.75" fill="#c3d6e8"/>
<rect x="1208.19" y="713.23" width="6.84" height="281.77" fill="#3b6ea5"/>
<rect x="1215.63" y="676.51" width="6.84" height="318.49" fill="#c3d6e8"/>
<rect x="1215.63" y="767.40" width="6.84" height="227.60" fill="#3b6ea5"/>
<rect x="1223.06" y="763.76" width="6.84" height="231.24" fill="#c3d6e8"/>
<rect x="1223.06" y="783.40" width="6.84" height="211.60" fill="#3b6ea5"/>
<rect x="1230.50" y="528.17" width="6.84" height="466.83" fill="#c3d6e8"/>
<rect x="1230.50" y="750.92" width="6.84" height="244.08" fill="#3b6ea5"/>
<rect x="1237.94" y="663.42" width="6.84" height="331.58" fill="#c3d6e8"/>
<rect x="1237.94" y="761.34" width="6.84" height="233.66" fill="#3b6ea5"/>
<rect x="1245.38" y="632.88" width="6.84" height="362.12" fill="#c3d6e8"/>
<rect x="1245.38" y="755.04" width="6.84" height="239.96" fill="#3b6ea5"/>
<rect x="1252.81" y="685.23" width="6.84" height="309.77" fill="#c3d6e8"/>
<rect x="1252.81" y="771.94" width="6.84" height="223.06" fill="#3b6ea5"/>
<rect x="1260.25" y="275.11" width="6.84" height="719.89" fill="#c3d6e8"/>
<rect x="1260.25" y="705.44" width="6.84" height="289.56" fill="#3b6ea5"/>
<rect x="1267.69" y="755.04" width="6.84" height="239.96" fill="#c3d6e8"/>
<rect x="1267.69" y="755.04" width="6.84" height="239.96" fill="#3b6ea5"/>
<rect x="1275.13" y="772.49" width="6.84" height="222.51" fill="#c3d6e8"/>
<rect x="1275.13" y="793.68" width="6.84" height="201.32" fill="#3b6ea5"/>
<rect x="1282.56" y="776.85" width="6.84" height="218.15" fill="#c3d6e8"/>
<rect x="1282.56" y="794.30" width="6.84" height="200.70" fill="#3b6ea5"/>
<rect x="1290.00" y="650.33" width="6.84" height="344.67" fill="#c3d6e8"/>
<rect x="1290.00" y="770.07" width="6.84" height="224.93" fill="#3b6ea5"/>
<rect x="1297.44" y="741.95" width="6.84" height="253.05" fill="#c3d6e8"/>
<rect x="1297.44" y="765.95" width="6.84" height="229.05" fill="#3b6ea5"/>
<rect x="1304.88" y="545.62" width="6.84" height="449.38" fill="#c3d6e8"/>
<rect x="1304.88" y="750.68" width="6.84" height="244.32" fill="#3b6ea5"/>
<rect x="1312.31" y="602.34" width="6.84" height="392.66" fill="#c3d6e8"/>
<rect x="1312.31" y="602.34" width="6.84" height="392.66" fill="#3b6ea5"/>
<rect x="1319.75" y="763.76" width="6.84" height="231.24" fill="#c3d6e8"/>
<rect x="1319.75" y="786.20" width="6.84" height="208.80" fill="#3b6ea5"/>
<rect x="1327.19" y="785.58" width="6.84" height="209.42" fill="#c3d6e8"/>
<rect x="1327.19" y="798.04" width="6.84" height="196.96" fill="#3b6ea5"/>
<rect x="1334.63" y="467.08" width="6.84" height="527.92" fill="#c3d6e8"/>
<rect x="1334.63" y="748.25" width="6.84" height="246.75" fill="#3b6ea5"/>
<rect x="1342.06" y="576.16" width="6.84" height="418.84" fill="#c3d6e8"/>
<rect x="1342.06" y="772.97" width="6.84" height="222.03" fill="#3b6ea5"/>
<rect x="1349.50" y="689.59" width="6.84" height="305.41" fill="#c3d6e8"/>
<rect x="1349.50" y="765.58" width="6.84" height="229.42" fill="#3b6ea5"/>
<rect x="1356.94" y="693.96" width="6.84" height="301.04" fill="#c3d6e8"/>
<rect x="1356.94" y="768.13" width="6.84" height="226.87" fill="#3b6ea5"/>
<rect x="1364.38" y="724.50" width="6.84" height="270.50" fill="#c3d6e8"/>
<rect x="1364.38" y="777.73" width="6.84" height="217.27" fill="#3b6ea5"/>
<rect x="1371.81" y="789.94" width="6.84" height="205.06" fill="#c3d6e8"/>
<rect x="1371.81" y="799.64" width="6.84" height="195.36" fill="#3b6ea5"/>
<rect x="1379.25" y="702.68" width="6.84" height="292.32" fill="#c3d6e8"/>
<rect x="1379.25" y="778.04" width="6.84" height="216.96" fill="#3b6ea5"/>
<rect x="1386.69" y="104.52" width="6.84" height="890.48" fill="#c3d6e8"/>
<rect x="1386.69" y="704.46" width="6.84" height="290.54" fill="#3b6ea5"/>
<rect x="1394.13" y="270.75" width="6.84" height="724.25" fill="#c3d6e8"/>
<rect x="1394.13" y="733.85" width="6.84" height="261.15" fill="#3b6ea5"/>
<rect x="1401.56" y="549.98" width="6.84" height="445.02" fill="#c3d6e8"/>
<rect x="1401.56" y="761.75" width="6.84" height="233.25" fill="#3b6ea5"/>
<rect x="1409.00" y="698.32" width="6.84" height="296.68" fill="#c3d6e8"/>
<rect x="1409.00" y="777.82" width="6.84" height="217.18" fill="#3b6ea5"/>
<rect x="1416.44" y="549.98" width="6.84" height="445.02" fill="#c3d6e8"/>
<rect x="1416.44" y="763.46" width="6.84" height="231.54" fill="#3b6ea5"/>
<rect x="1423.88" y="776.85" width="6.84" height="218.15" fill="#c3d6e8"/>
<rect x="1423.88" y="796.12" width="6.84" height="198.88" fill="#3b6ea5"/>
<rect x="1431.31" y="772.49" width="6.84" height="222.51" fill="#c3d6e8"/>
<rect x="1431.31" y="787.03" width="6.84" height="207.97" fill="#3b6ea5"/>
<rect x="1438.75" y="554.34" width="6.84" height="440.66" fill="#c3d6e8"/>
<rect x="1438.75" y="744.57" width="6.84" height="250.43" fill="#3b6ea5"/>
<rect x="1446.19" y="532.53" width="6.84" height="462.47" fill="#c3d6e8"/>
<rect x="1446.19" y="752.99" width="6.84" height="242.01" fill="#3b6ea5"/>
<rect x="1453.63" y="789.94" width="6.84" height="205.06" fill="#c3d6e8"/>
<rect x="1453.63" y="794.30" width="6.84" height="200.70" fill="#3b6ea5"/>
<rect x="1461.06" y="252.86" width="6.84" height="742.14" fill="#c3d6e8"/>
<rect x="1461.06" y="664.68" width="6.84" height="330.32" fill="#3b6ea5"/>
<rect x="1468.50" y="611.06" width="6.84" height="383.94" fill="#c3d6e8"/>
<rect x="1468.50" y="764.25" width="6.84" height="230.75" fill="#3b6ea5"/>
<rect x="1475.94" y="645.96" width="6.84" height="349.04" fill="#c3d6e8"/>
<rect x="1475.94" y="756.13" width="6.84" height="238.87" fill="#3b6ea5"/>
<rect x="1483.38" y="759.40" width="6.84" height="235.60" fill="#c3d6e8"/>
<rect x="1483.38" y="781.22" width="6.84" height="213.78" fill="#3b6ea5"/>
<rect x="1490.81" y="720.13" width="6.84" height="274.87" fill="#c3d6e8"/>
<rect x="1490.81" y="775.22" width="6.84" height="219.78" fill="#3b6ea5"/>
<rect x="1498.25" y="619.79" width="6.84" height="375.21" fill="#c3d6e8"/>
<rect x="1498.25" y="756.78" width="6.84" height="238.22" fill="#3b6ea5"/>
<rect x="1505.69" y="680.87" width="6.84" height="314.13" fill="#c3d6e8"/>
<rect x="1505.69" y="773.46" width="6.84" height="221.54" fill="#3b6ea5"/>
<rect x="1513.13" y="632.88" width="6.84" height="362.12" fill="#c3d6e8"/>
<rect x="1513.13" y="779.28" width="6.84" height="215.72" fill="#3b6ea5"/>
<rect x="1520.56" y="619.79" width="6.84" height="375.21" fill="#c3d6e8"/>
<rect x="1520.56" y="760.02" width="6.84" height="234.98" fill="#3b6ea5"/>
<rect x="1528.00" y="593.61" width="6.84" height="401.39" fill="#c3d6e8"/>
<rect x="1528.00" y="758.47" width="6.84" height="236.53" fill="#3b6ea5"/>
<rect x="1535.44" y="763.76" width="6.84" height="231.24" fill="#c3d6e8"/>
<rect x="1535.44" y="780.34" width="6.84" height="214.66" fill="#3b6ea5"/>
<rect x="1542.88" y="606.70" width="6.84" height="388.30" fill="#c3d6e8"/>
<rect x="1542.88" y="773.31" width="6.84" height="221.69" fill="#3b6ea5"/>
<rect x="1550.31" y="563.07" width="6.84" height="431.93" fill="#c3d6e8"/>
<rect x="1550.31" y="759.40" width="6.84" height="235.60" fill="#3b6ea5"/>
<rect x="1557.75" y="563.07" width="6.84" height="431.93" fill="#c3d6e8"/>
<rect x="1557.75" y="737.59" width="6.84" height="257.41" fill="#3b6ea5"/>
<rect x="1565.19" y="619.79" width="6.84" height="375.21" fill="#c3d6e8"/>
<rect x="1565.19" y="723.25" width="6.84" height="271.75" fill="#3b6ea5"/>
<rect x="1572.63" y="768.13" width="6.84" height="226.87" fill="#c3d6e8"/>
<rect x="1572.63" y="781.22" width="6.84" height="213.78" fill="#3b6ea5"/>
<rect x="1580.06" y="689.59" width="6.84" height="305.41" fill="#c3d6e8"/>
<rect x="1580.06" y="755.71" width="6.84" height="239.29" fill="#3b6ea5"/>
<rect x="1587.50" y="558.71" width="6.84" height="436.29" fill="#c3d6e8"/>
<rect x="1587.50" y="767.61" width="6.84" height="227.39" fill="#3b6ea5"/>
<rect x="1594.94" y="584.88" width="6.84" height="410.12" fill="#c3d6e8"/>
<rect x="1594.94" y="733.81" width="6.84" height="261.19" fill="#3b6ea5"/>
<rect x="1602.38" y="733.22" width="6.84" height="261.78" fill="#c3d6e8"/>
<rect x="1602.38" y="770.31" width="6.84" height="224.69" fill="#3b6ea5"/>
<rect x="1609.81" y="698.32" width="6.84" height="296.68" fill="#c3d6e8"/>
<rect x="1609.81" y="764.22" width="6.84" height="230.78" fill="#3b6ea5"/>
<rect x="1617.25" y="645.96" width="6.84" height="349.04" fill="#c3d6e8"/>
<rect x="1617.25" y="743.04" width="6.84" height="251.96" fill="#3b6ea5"/>
<rect x="1624.69" y="707.05" width="6.84" height="287.95" fill="#c3d6e8"/>
<rect x="1624.69" y="759.89" width="6.84" height="235.11" fill="#3b6ea5"/>
<rect x="1632.13" y="597.97" width="6.84" height="397.03" fill="#c3d6e8"/>
<rect x="1632.13" y="761.58" width="6.84" height="233.42" fill="#3b6ea5"/>
<rect x="1639.56" y="746.31" width="6.84" height="248.69" fill="#c3d6e8"/>
<rect x="1639.56" y="779.97" width="6.84" height="215.03" fill="#3b6ea5"/>
<rect x="1647.00" y="406.00" width="6.84" height="589.00" fill="#c3d6e8"/>
<rect x="1647.00" y="734.31" width="6.84" height="260.69" fill="#3b6ea5"/>
<rect x="1654.44" y="406.00" width="6.84" height="589.00" fill="#c3d6e8"/>
<rect x="1654.44" y="739.38" width="6.84" height="255.62" fill="#3b6ea5"/>
<rect x="1661.88" y="680.87" width="6.84" height="314.13" fill="#c3d6e8"/>
<rect x="1661.88" y="763.76" width="6.84" height="231.24" fill="#3b6ea5"/>
<rect x="1669.31" y="632.88" width="6.84" height="362.12" fill="#c3d6e8"/>
<rect x="1669.31" y="763.42" width="6.84" height="231.58" fill="#3b6ea5"/>
<rect x="1676.75" y="693.96" width="6.84" height="301.04" fill="#c3d6e8"/>
<rect x="1676.75" y="762.31" width="6.84" height="232.69" fill="#3b6ea5"/>
<rect x="1684.19" y="641.60" width="6.84" height="353.40" fill="#c3d6e8"/>
<rect x="1684.19" y="764.01" width="6.84" height="230.99" fill="#3b6ea5"/>
<rect x="1691.63" y="728.86" width="6.84" height="266.14" fill="#c3d6e8"/>
<rect x="1691.63" y="778.31" width="6.84" height="216.69" fill="#3b6ea5"/>
<rect x="1699.06" y="672.14" width="6.84" height="322.86" fill="#c3d6e8"/>
<rect x="1699.06" y="771.98" width="6.84" height="223.02" fill="#3b6ea5"/>
<rect x="1706.50" y="641.60" width="6.84" height="353.40" fill="#c3d6e8"/>
<rect x="1706.50" y="767.67" width="6.84" height="227.33" fill="#3b6ea5"/>
<rect x="1713.94" y="741.95" width="6.84" height="253.05" fill="#c3d6e8"/>
<rect x="1713.94" y="780.34" width="6.84" height="214.66" fill="#3b6ea5"/>
<rect x="1721.38" y="785.58" width="6.84" height="209.42" fill="#c3d6e8"/>
<rect x="1721.38" y="797.21" width="6.84" height="197.79" fill="#3b6ea5"/>
<rect x="1728.81" y="794.30" width="6.84" height="200.70" fill="#c3d6e8"/>
<rect x="1728.81" y="799.54" width="6.84" height="195.46" fill="#3b6ea5"/>
<rect x="1736.25" y="584.88" width="6.84" height="410.12" fill="#c3d6e8"/>
<rect x="1736.25" y="758.61" width="6.84" height="236.39" fill="#3b6ea5"/>
<rect x="1743.69" y="763.76" width="6.84" height="231.24" fill="#c3d6e8"/>
<rect x="1743.69" y="777.58" width="6.84" height="217.42" fill="#3b6ea5"/>
<rect x="1751.13" y="750.68" width="6.84" height="244.32" fill="#c3d6e8"/>
<rect x="1751.13" y="771.62" width="6.84" height="223.38" fill="#3b6ea5"/>
<rect x="1758.56" y="763.76" width="6.84" height="231.24" fill="#c3d6e8"/>
<rect x="1758.56" y="784.12" width="6.84" height="210.88" fill="#3b6ea5"/>
<rect x="1766.00" y="611.06" width="6.84" height="383.94" fill="#c3d6e8"/>
<rect x="1766.00" y="736.50" width="6.84" height="258.50" fill="#3b6ea5"/>
<rect x="1773.44" y="803.03" width="6.84" height="191.97" fill="#c3d6e8"/>
<rect x="1773.44" y="803.03" width="6.84" height="191.97" fill="#3b6ea5"/>
<rect x="1780.88" y="755.04" width="6.84" height="239.96" fill="#c3d6e8"/>
<rect x="1780.88" y="786.06" width="6.84" height="208.94" fill="#3b6ea5"/>
<rect x="1788.31" y="737.59" width="6.84" height="257.41" fill="#c3d6e8"/>
<rect x="1788.31" y="780.34" width="6.84" height="214.66" fill="#3b6ea5"/>
<rect x="1795.75" y="737.59" width="6.84" height="257.41" fill="#c3d6e8"/>
<rect x="1795.75" y="769.58" width="6.84" height="225.42" fill="#3b6ea5"/>
<rect x="1803.19" y="506.35" width="6.84" height="488.65" fill="#c3d6e8"/>
<rect x="1803.19" y="750.34" width="6.84" height="244.66" fill="#3b6ea5"/>
<rect x="1810.63" y="689.59" width="6.84" height="305.41" fill="#c3d6e8"/>
<rect x="1810.63" y="746.31" width="6.84" height="248.69" fill="#3b6ea5"/>
<rect x="1818.06" y="733.22" width="6.84" height="261.78" fill="#c3d6e8"/>
<rect x="1818.06" y="773.58" width="6.84" height="221.42" fill="#3b6ea5"/>
<rect x="1825.50" y="746.31" width="6.84" height="248.69" fill="#c3d6e8"/>
<rect x="1825.50" y="783.83" width="6.84" height="211.17" fill="#3b6ea5"/>
<rect x="1832.94" y="702.68" width="6.84" height="292.32" fill="#c3d6e8"/>
<rect x="1832.94" y="761.15" width="6.84" height="233.85" fill="#3b6ea5"/>
<rect x="1840.38" y="741.95" width="6.84" height="253.05" fill="#c3d6e8"/>
<rect x="1840.38" y="784.96" width="6.84" height="210.04" fill="#3b6ea5"/>
<rect x="1847.81" y="707.05" width="6.84" height="287.95" fill="#c3d6e8"/>
<rect x="1847.81" y="767.04" width="6.84" height="227.96" fill="#3b6ea5"/>
<rect x="1855.25" y="693.96" width="6.84" height="301.04" fill="#c3d6e8"/>
<rect x="1855.25" y="749.80" width="6.84" height="245.20" fill="#3b6ea5"/>
<rect x="1862.69" y="702.68" width="6.84" height="292.32" fill="#c3d6e8"/>
<rect x="1862.69" y="755.04" width="6.84" height="239.96" fill="#3b6ea5"/>
<rect x="1870.13" y="541.25" width="6.84" height="453.75" fill="#c3d6e8"/>
<rect x="1870.13" y="724.83" width="6.84" height="270.17" fill="#3b6ea5"/>
<rect x="1877.56" y="741.95" width="6.84" height="253.05" fill="#c3d6e8"/>
<rect x="1877.56" y="770.31" width="6.84" height="224.69" fill="#3b6ea5"/>
<rect x="1735" y="68" width="14" height="14" fill="#c3d6e8"/><text x="1755" y="80" font-size="13" fill="#444">worst</text>
<rect x="1815" y="68" width="14" height="14" fill="#3b6ea5"/><text x="1835" y="80" font-size="13" fill="#444">mean</text>
<line x1="100" y1="995" x2="1885" y2="995" stroke="#111"/>
<line x1="100" y1="60" x2="100" y2="995" stroke="#111"/>
<text x="992.5" y="1055.0" font-size="14" fill="#111" text-anchor="middle">order id</text>
<text x="22" y="527.5" font-size="14" fill="#111" text-anchor="middle" transform="rotate(-90 22 527.5)">latency (ns)</text>
</svg>
